<mxfile host="app.diagrams.net" modified="2021-04-09T06:36:23.443Z" agent="5.0 (Windows)" etag="5iVSJPXyiwOw0RPfU6QK" version="14.5.8" type="github">
  <diagram id="C5RBs43oDa-KdzZeNtuy" name="Page-1">
    <mxGraphModel dx="1695" dy="489" grid="1" gridSize="10" guides="1" tooltips="1" connect="1" arrows="1" fold="1" page="1" pageScale="1" pageWidth="827" pageHeight="1169" background="none" math="0" shadow="0">
      <root>
        <mxCell id="WIyWlLk6GJQsqaUBKTNV-0" />
        <mxCell id="WIyWlLk6GJQsqaUBKTNV-1" parent="WIyWlLk6GJQsqaUBKTNV-0" />
        <mxCell id="madsNF5-9-t_qONxIqkp-28" style="edgeStyle=orthogonalEdgeStyle;rounded=0;orthogonalLoop=1;jettySize=auto;html=1;exitX=0;exitY=0.5;exitDx=0;exitDy=0;entryX=0.75;entryY=0;entryDx=0;entryDy=0;" parent="WIyWlLk6GJQsqaUBKTNV-1" source="madsNF5-9-t_qONxIqkp-3" target="madsNF5-9-t_qONxIqkp-21" edge="1">
          <mxGeometry relative="1" as="geometry" />
        </mxCell>
        <mxCell id="5NZmGxR7Z9d4b-Xke_Fb-16" style="edgeStyle=orthogonalEdgeStyle;rounded=0;orthogonalLoop=1;jettySize=auto;html=1;entryX=0.5;entryY=0;entryDx=0;entryDy=0;" edge="1" parent="WIyWlLk6GJQsqaUBKTNV-1" source="madsNF5-9-t_qONxIqkp-3" target="5NZmGxR7Z9d4b-Xke_Fb-38">
          <mxGeometry relative="1" as="geometry">
            <mxPoint x="740" y="340" as="targetPoint" />
          </mxGeometry>
        </mxCell>
        <mxCell id="madsNF5-9-t_qONxIqkp-3" value="Is the photo bright&lt;div&gt;&amp;amp; clear with no page folding/warping?&amp;nbsp; &lt;br&gt;&lt;/div&gt;" style="rhombus;whiteSpace=wrap;shadow=0;fontFamily=Helvetica;fontSize=12;align=center;strokeWidth=1;spacing=6;spacingTop=4;verticalAlign=middle;textDirection=ltr;html=1;horizontal=1;fillColor=#dae8fc;strokeColor=#6c8ebf;labelPosition=center;verticalLabelPosition=middle;spacingLeft=1;" parent="WIyWlLk6GJQsqaUBKTNV-1" vertex="1">
          <mxGeometry x="510" y="250" width="142.5" height="142.5" as="geometry" />
        </mxCell>
        <mxCell id="madsNF5-9-t_qONxIqkp-12" style="edgeStyle=orthogonalEdgeStyle;rounded=0;orthogonalLoop=1;jettySize=auto;html=1;entryX=0.5;entryY=0;entryDx=0;entryDy=0;" parent="WIyWlLk6GJQsqaUBKTNV-1" source="madsNF5-9-t_qONxIqkp-9" target="madsNF5-9-t_qONxIqkp-10" edge="1">
          <mxGeometry relative="1" as="geometry" />
        </mxCell>
        <mxCell id="madsNF5-9-t_qONxIqkp-13" style="edgeStyle=orthogonalEdgeStyle;rounded=0;orthogonalLoop=1;jettySize=auto;html=1;exitX=1;exitY=0.5;exitDx=0;exitDy=0;entryX=0.5;entryY=0;entryDx=0;entryDy=0;" parent="WIyWlLk6GJQsqaUBKTNV-1" source="madsNF5-9-t_qONxIqkp-9" target="madsNF5-9-t_qONxIqkp-3" edge="1">
          <mxGeometry relative="1" as="geometry" />
        </mxCell>
        <mxCell id="madsNF5-9-t_qONxIqkp-9" value="&lt;br/&gt;&lt;br/&gt;&lt;p class=&quot;MsoNormal&quot; style=&quot;text-align: center&quot; align=&quot;center&quot;&gt;&lt;span lang=&quot;EN-IN&quot;&gt;Is it scanned?&lt;/span&gt;&lt;/p&gt;&lt;br/&gt;&lt;br/&gt;" style="rhombus;whiteSpace=wrap;html=1;shadow=0;fontFamily=Helvetica;fontSize=12;align=center;strokeWidth=1;spacing=6;spacingTop=-4;fillColor=#dae8fc;strokeColor=#6c8ebf;" parent="WIyWlLk6GJQsqaUBKTNV-1" vertex="1">
          <mxGeometry x="324" y="100" width="132.5" height="130" as="geometry" />
        </mxCell>
        <mxCell id="madsNF5-9-t_qONxIqkp-27" style="edgeStyle=orthogonalEdgeStyle;rounded=0;orthogonalLoop=1;jettySize=auto;html=1;exitX=1;exitY=0.5;exitDx=0;exitDy=0;entryX=0.25;entryY=0;entryDx=0;entryDy=0;" parent="WIyWlLk6GJQsqaUBKTNV-1" source="madsNF5-9-t_qONxIqkp-10" target="madsNF5-9-t_qONxIqkp-21" edge="1">
          <mxGeometry relative="1" as="geometry" />
        </mxCell>
        <mxCell id="5NZmGxR7Z9d4b-Xke_Fb-6" style="edgeStyle=orthogonalEdgeStyle;rounded=0;orthogonalLoop=1;jettySize=auto;html=1;exitX=0;exitY=0.5;exitDx=0;exitDy=0;entryX=0.5;entryY=0;entryDx=0;entryDy=0;" edge="1" parent="WIyWlLk6GJQsqaUBKTNV-1" source="madsNF5-9-t_qONxIqkp-10" target="5NZmGxR7Z9d4b-Xke_Fb-7">
          <mxGeometry relative="1" as="geometry" />
        </mxCell>
        <mxCell id="madsNF5-9-t_qONxIqkp-10" value="&lt;div&gt;&lt;span&gt;&lt;br&gt;&lt;/span&gt;&lt;/div&gt;&lt;div&gt;&lt;span&gt;Is the image scanned&lt;/span&gt;&lt;span&gt; with 300dpi? &lt;/span&gt;&lt;/div&gt;" style="rhombus;whiteSpace=wrap;shadow=0;fontFamily=Helvetica;fontSize=12;align=center;strokeWidth=1;spacing=6;spacingTop=-1;verticalAlign=middle;textDirection=ltr;html=1;horizontal=1;fillColor=#dae8fc;strokeColor=#6c8ebf;labelPosition=center;verticalLabelPosition=middle;" parent="WIyWlLk6GJQsqaUBKTNV-1" vertex="1">
          <mxGeometry x="127.5" y="249.38" width="142.5" height="142.5" as="geometry" />
        </mxCell>
        <mxCell id="madsNF5-9-t_qONxIqkp-14" value="Photographed Image" style="text;html=1;strokeColor=none;fillColor=none;align=center;verticalAlign=middle;whiteSpace=wrap;rounded=0;rotation=0;" parent="WIyWlLk6GJQsqaUBKTNV-1" vertex="1">
          <mxGeometry x="586" y="154" width="40" height="20" as="geometry" />
        </mxCell>
        <mxCell id="madsNF5-9-t_qONxIqkp-16" value="No" style="text;html=1;strokeColor=none;fillColor=none;align=center;verticalAlign=middle;whiteSpace=wrap;rounded=0;" parent="WIyWlLk6GJQsqaUBKTNV-1" vertex="1">
          <mxGeometry x="500" y="145" width="40" height="20" as="geometry" />
        </mxCell>
        <mxCell id="madsNF5-9-t_qONxIqkp-19" value="Yes" style="text;html=1;strokeColor=none;fillColor=none;align=center;verticalAlign=middle;whiteSpace=wrap;rounded=0;" parent="WIyWlLk6GJQsqaUBKTNV-1" vertex="1">
          <mxGeometry x="242" y="145" width="40" height="20" as="geometry" />
        </mxCell>
        <mxCell id="madsNF5-9-t_qONxIqkp-21" value="&lt;div&gt;Image preprocessing&lt;/div&gt;" style="rounded=1;whiteSpace=wrap;html=1;align=center;fillColor=#dae8fc;strokeColor=#6c8ebf;" parent="WIyWlLk6GJQsqaUBKTNV-1" vertex="1">
          <mxGeometry x="312.25" y="361.25" width="156" height="80" as="geometry" />
        </mxCell>
        <mxCell id="madsNF5-9-t_qONxIqkp-22" value="&lt;div&gt;Text Extraction &lt;br&gt;&lt;/div&gt;&lt;div&gt;using OCR&lt;/div&gt;" style="rounded=1;whiteSpace=wrap;html=1;align=center;fillColor=#dae8fc;strokeColor=#6c8ebf;spacing=0;" parent="WIyWlLk6GJQsqaUBKTNV-1" vertex="1">
          <mxGeometry x="312.25" y="540" width="156" height="80" as="geometry" />
        </mxCell>
        <mxCell id="madsNF5-9-t_qONxIqkp-23" value="Text Processing" style="rounded=1;whiteSpace=wrap;html=1;align=center;fillColor=#dae8fc;strokeColor=#6c8ebf;" parent="WIyWlLk6GJQsqaUBKTNV-1" vertex="1">
          <mxGeometry x="312" y="683.75" width="156" height="80" as="geometry" />
        </mxCell>
        <mxCell id="madsNF5-9-t_qONxIqkp-32" style="edgeStyle=orthogonalEdgeStyle;rounded=0;orthogonalLoop=1;jettySize=auto;html=1;" parent="WIyWlLk6GJQsqaUBKTNV-1" source="madsNF5-9-t_qONxIqkp-31" target="madsNF5-9-t_qONxIqkp-9" edge="1">
          <mxGeometry relative="1" as="geometry" />
        </mxCell>
        <mxCell id="madsNF5-9-t_qONxIqkp-31" value="&#xa;Input Image&#xa;&#xa;" style="shape=parallelogram;perimeter=parallelogramPerimeter;whiteSpace=wrap;html=1;fixedSize=1;rounded=1;strokeColor=#6c8ebf;fillColor=#dae8fc;labelPosition=center;verticalLabelPosition=middle;align=center;verticalAlign=middle;strokeWidth=1;spacingLeft=2;spacingTop=13;" parent="WIyWlLk6GJQsqaUBKTNV-1" vertex="1">
          <mxGeometry x="325.26" width="129.75" height="60" as="geometry" />
        </mxCell>
        <mxCell id="madsNF5-9-t_qONxIqkp-33" value="Yes" style="text;html=1;strokeColor=none;fillColor=none;align=center;verticalAlign=middle;whiteSpace=wrap;rounded=0;" parent="WIyWlLk6GJQsqaUBKTNV-1" vertex="1">
          <mxGeometry x="291" y="301" width="40" height="20" as="geometry" />
        </mxCell>
        <mxCell id="madsNF5-9-t_qONxIqkp-34" value="Yes" style="text;html=1;strokeColor=none;fillColor=none;align=center;verticalAlign=middle;whiteSpace=wrap;rounded=0;" parent="WIyWlLk6GJQsqaUBKTNV-1" vertex="1">
          <mxGeometry x="450" y="301" width="40" height="20" as="geometry" />
        </mxCell>
        <mxCell id="madsNF5-9-t_qONxIqkp-38" value="No" style="text;html=1;strokeColor=none;fillColor=none;align=center;verticalAlign=middle;whiteSpace=wrap;rounded=0;" parent="WIyWlLk6GJQsqaUBKTNV-1" vertex="1">
          <mxGeometry x="670" y="301" width="40" height="20" as="geometry" />
        </mxCell>
        <mxCell id="madsNF5-9-t_qONxIqkp-40" value="No" style="text;html=1;strokeColor=none;fillColor=none;align=center;verticalAlign=middle;whiteSpace=wrap;rounded=0;" parent="WIyWlLk6GJQsqaUBKTNV-1" vertex="1">
          <mxGeometry x="70" y="301" width="40" height="20" as="geometry" />
        </mxCell>
        <mxCell id="5NZmGxR7Z9d4b-Xke_Fb-0" value="" style="edgeStyle=orthogonalEdgeStyle;rounded=0;orthogonalLoop=1;jettySize=auto;html=1;" edge="1" parent="WIyWlLk6GJQsqaUBKTNV-1" source="5NZmGxR7Z9d4b-Xke_Fb-1" target="5NZmGxR7Z9d4b-Xke_Fb-3">
          <mxGeometry relative="1" as="geometry" />
        </mxCell>
        <mxCell id="5NZmGxR7Z9d4b-Xke_Fb-1" value="&lt;div&gt;Text Extraction using preprocessed image&lt;/div&gt;&lt;div&gt;with suboptimal results&lt;br&gt;&lt;/div&gt;" style="rounded=1;whiteSpace=wrap;html=1;align=center;fillColor=#dae8fc;strokeColor=#6c8ebf;spacing=0;" vertex="1" parent="WIyWlLk6GJQsqaUBKTNV-1">
          <mxGeometry x="-50" y="478.75" width="156" height="80" as="geometry" />
        </mxCell>
        <mxCell id="5NZmGxR7Z9d4b-Xke_Fb-2" value="" style="edgeStyle=orthogonalEdgeStyle;rounded=0;orthogonalLoop=1;jettySize=auto;html=1;" edge="1" parent="WIyWlLk6GJQsqaUBKTNV-1" source="5NZmGxR7Z9d4b-Xke_Fb-3" target="5NZmGxR7Z9d4b-Xke_Fb-4">
          <mxGeometry relative="1" as="geometry" />
        </mxCell>
        <mxCell id="5NZmGxR7Z9d4b-Xke_Fb-3" value="Complicated text processing to get the required fields" style="rounded=1;whiteSpace=wrap;html=1;align=center;fillColor=#dae8fc;strokeColor=#6c8ebf;" vertex="1" parent="WIyWlLk6GJQsqaUBKTNV-1">
          <mxGeometry x="-50" y="603.75" width="156" height="80" as="geometry" />
        </mxCell>
        <mxCell id="5NZmGxR7Z9d4b-Xke_Fb-4" value="&lt;div&gt;Store the &lt;br&gt;&lt;/div&gt;&lt;div&gt;acquired data&lt;/div&gt;&lt;div&gt;in database&lt;br&gt;&lt;/div&gt;" style="shape=parallelogram;perimeter=parallelogramPerimeter;whiteSpace=wrap;html=1;fixedSize=1;rounded=1;strokeColor=#6c8ebf;fillColor=#dae8fc;spacingTop=-1;spacingLeft=1;" vertex="1" parent="WIyWlLk6GJQsqaUBKTNV-1">
          <mxGeometry x="-41.75" y="870" width="139.5" height="70" as="geometry" />
        </mxCell>
        <mxCell id="5NZmGxR7Z9d4b-Xke_Fb-8" style="edgeStyle=orthogonalEdgeStyle;rounded=0;orthogonalLoop=1;jettySize=auto;html=1;exitX=0.5;exitY=1;exitDx=0;exitDy=0;" edge="1" parent="WIyWlLk6GJQsqaUBKTNV-1" source="5NZmGxR7Z9d4b-Xke_Fb-7" target="5NZmGxR7Z9d4b-Xke_Fb-1">
          <mxGeometry relative="1" as="geometry" />
        </mxCell>
        <mxCell id="5NZmGxR7Z9d4b-Xke_Fb-7" value="&lt;div&gt;&lt;div&gt;Image preprocessing&lt;/div&gt;to enhance text&lt;/div&gt;" style="rounded=1;whiteSpace=wrap;html=1;align=center;fillColor=#dae8fc;strokeColor=#6c8ebf;" vertex="1" parent="WIyWlLk6GJQsqaUBKTNV-1">
          <mxGeometry x="-50" y="361.25" width="156" height="80" as="geometry" />
        </mxCell>
        <mxCell id="5NZmGxR7Z9d4b-Xke_Fb-18" value="accuracy " style="text;html=1;strokeColor=none;fillColor=none;align=center;verticalAlign=middle;whiteSpace=wrap;rounded=0;" vertex="1" parent="WIyWlLk6GJQsqaUBKTNV-1">
          <mxGeometry x="40" y="700" width="40" height="20" as="geometry" />
        </mxCell>
        <mxCell id="5NZmGxR7Z9d4b-Xke_Fb-26" value="" style="endArrow=classic;html=1;exitX=0.5;exitY=1;exitDx=0;exitDy=0;entryX=0.5;entryY=0;entryDx=0;entryDy=0;" edge="1" parent="WIyWlLk6GJQsqaUBKTNV-1" source="madsNF5-9-t_qONxIqkp-21" target="madsNF5-9-t_qONxIqkp-22">
          <mxGeometry relative="1" as="geometry">
            <mxPoint x="368.25" y="490" as="sourcePoint" />
            <mxPoint x="468.25" y="490" as="targetPoint" />
            <Array as="points" />
          </mxGeometry>
        </mxCell>
        <mxCell id="5NZmGxR7Z9d4b-Xke_Fb-27" value="&lt;div style=&quot;font-size: 12px&quot;&gt;Image is enhanced and &lt;br&gt;&lt;/div&gt;&lt;div style=&quot;font-size: 12px&quot;&gt;fed to OCR such that its &lt;br&gt;&lt;/div&gt;&lt;div style=&quot;font-size: 12px&quot;&gt;easier to recognize text.&lt;br style=&quot;font-size: 12px&quot;&gt;&lt;/div&gt;" style="edgeLabel;resizable=0;html=1;align=left;verticalAlign=middle;fontSize=12;" connectable="0" vertex="1" parent="5NZmGxR7Z9d4b-Xke_Fb-26">
          <mxGeometry relative="1" as="geometry">
            <mxPoint x="-64.99" y="-0.25" as="offset" />
          </mxGeometry>
        </mxCell>
        <mxCell id="5NZmGxR7Z9d4b-Xke_Fb-29" value="" style="endArrow=classic;html=1;exitX=0.5;exitY=1;exitDx=0;exitDy=0;entryX=0.5;entryY=0;entryDx=0;entryDy=0;" edge="1" parent="WIyWlLk6GJQsqaUBKTNV-1" source="madsNF5-9-t_qONxIqkp-22" target="madsNF5-9-t_qONxIqkp-23">
          <mxGeometry relative="1" as="geometry">
            <mxPoint x="530" y="670" as="sourcePoint" />
            <mxPoint x="530" y="787.5" as="targetPoint" />
            <Array as="points" />
          </mxGeometry>
        </mxCell>
        <mxCell id="5NZmGxR7Z9d4b-Xke_Fb-30" value="Extracted text is stored &lt;br&gt;&lt;div&gt;in a text file.&lt;/div&gt;" style="edgeLabel;resizable=0;html=1;align=left;verticalAlign=middle;fontSize=12;" connectable="0" vertex="1" parent="5NZmGxR7Z9d4b-Xke_Fb-29">
          <mxGeometry relative="1" as="geometry">
            <mxPoint x="-128.12" y="-2" as="offset" />
          </mxGeometry>
        </mxCell>
        <mxCell id="5NZmGxR7Z9d4b-Xke_Fb-31" value="Data Storage" style="shape=parallelogram;perimeter=parallelogramPerimeter;whiteSpace=wrap;html=1;fixedSize=1;rounded=1;strokeColor=#6c8ebf;fillColor=#dae8fc;spacingTop=-1;spacingLeft=1;" vertex="1" parent="WIyWlLk6GJQsqaUBKTNV-1">
          <mxGeometry x="315.33" y="870" width="149.61" height="80" as="geometry" />
        </mxCell>
        <mxCell id="5NZmGxR7Z9d4b-Xke_Fb-32" value="" style="endArrow=classic;html=1;exitX=0.5;exitY=1;exitDx=0;exitDy=0;entryX=0.5;entryY=0;entryDx=0;entryDy=0;" edge="1" parent="WIyWlLk6GJQsqaUBKTNV-1" source="madsNF5-9-t_qONxIqkp-23" target="5NZmGxR7Z9d4b-Xke_Fb-31">
          <mxGeometry relative="1" as="geometry">
            <mxPoint x="400.25" y="840" as="sourcePoint" />
            <mxPoint x="400.1399999999999" y="961.25" as="targetPoint" />
            <Array as="points" />
          </mxGeometry>
        </mxCell>
        <mxCell id="5NZmGxR7Z9d4b-Xke_Fb-33" value="&lt;div&gt;Extracting fields &lt;br&gt;&lt;/div&gt;&lt;div&gt;using fuzzy logic and &lt;br&gt;&lt;/div&gt;advanced algorithms" style="edgeLabel;resizable=0;html=1;align=left;verticalAlign=middle;fontSize=12;" connectable="0" vertex="1" parent="5NZmGxR7Z9d4b-Xke_Fb-32">
          <mxGeometry relative="1" as="geometry">
            <mxPoint x="-58.06999999999999" y="-1.75" as="offset" />
          </mxGeometry>
        </mxCell>
        <mxCell id="5NZmGxR7Z9d4b-Xke_Fb-34" value="End" style="ellipse;whiteSpace=wrap;html=1;rounded=1;strokeColor=#6c8ebf;fillColor=#dae8fc;spacingTop=-1;spacingLeft=1;" vertex="1" parent="WIyWlLk6GJQsqaUBKTNV-1">
          <mxGeometry x="330" y="1040" width="120" height="80" as="geometry" />
        </mxCell>
        <mxCell id="5NZmGxR7Z9d4b-Xke_Fb-36" value="" style="endArrow=classic;html=1;exitX=0.5;exitY=1;exitDx=0;exitDy=0;entryX=0.5;entryY=0;entryDx=0;entryDy=0;" edge="1" parent="WIyWlLk6GJQsqaUBKTNV-1" source="5NZmGxR7Z9d4b-Xke_Fb-31" target="5NZmGxR7Z9d4b-Xke_Fb-34">
          <mxGeometry relative="1" as="geometry">
            <mxPoint x="489.9999999999999" y="1040" as="sourcePoint" />
            <mxPoint x="390" y="1090" as="targetPoint" />
            <Array as="points" />
          </mxGeometry>
        </mxCell>
        <mxCell id="5NZmGxR7Z9d4b-Xke_Fb-37" value="&lt;div&gt;Can be stored in &lt;br&gt;&lt;/div&gt;&lt;div&gt;database or export as &lt;br&gt;&lt;/div&gt;&lt;div&gt;csv, excel documents.&lt;/div&gt;" style="edgeLabel;resizable=0;html=1;align=left;verticalAlign=middle;fontSize=12;" connectable="0" vertex="1" parent="5NZmGxR7Z9d4b-Xke_Fb-36">
          <mxGeometry relative="1" as="geometry">
            <mxPoint x="-128.07" y="5" as="offset" />
          </mxGeometry>
        </mxCell>
        <mxCell id="5NZmGxR7Z9d4b-Xke_Fb-38" value="&lt;div&gt;Image preprocessing&lt;/div&gt;" style="rounded=1;whiteSpace=wrap;html=1;align=center;fillColor=#dae8fc;strokeColor=#6c8ebf;" vertex="1" parent="WIyWlLk6GJQsqaUBKTNV-1">
          <mxGeometry x="660.25" y="361.25" width="156" height="80" as="geometry" />
        </mxCell>
        <mxCell id="5NZmGxR7Z9d4b-Xke_Fb-39" value="&lt;div&gt;Text Extraction &lt;br&gt;&lt;/div&gt;&lt;div&gt;using OCR&lt;/div&gt;" style="rounded=1;whiteSpace=wrap;html=1;align=center;fillColor=#dae8fc;strokeColor=#6c8ebf;spacing=0;" vertex="1" parent="WIyWlLk6GJQsqaUBKTNV-1">
          <mxGeometry x="660.25" y="540" width="156" height="80" as="geometry" />
        </mxCell>
        <mxCell id="5NZmGxR7Z9d4b-Xke_Fb-40" value="Text Processing" style="rounded=1;whiteSpace=wrap;html=1;align=center;fillColor=#dae8fc;strokeColor=#6c8ebf;" vertex="1" parent="WIyWlLk6GJQsqaUBKTNV-1">
          <mxGeometry x="660" y="683.75" width="156" height="80" as="geometry" />
        </mxCell>
        <mxCell id="5NZmGxR7Z9d4b-Xke_Fb-41" value="" style="endArrow=classic;html=1;exitX=0.5;exitY=1;exitDx=0;exitDy=0;entryX=0.5;entryY=0;entryDx=0;entryDy=0;" edge="1" parent="WIyWlLk6GJQsqaUBKTNV-1" source="5NZmGxR7Z9d4b-Xke_Fb-38" target="5NZmGxR7Z9d4b-Xke_Fb-39">
          <mxGeometry relative="1" as="geometry">
            <mxPoint x="716.25" y="490" as="sourcePoint" />
            <mxPoint x="816.25" y="490" as="targetPoint" />
            <Array as="points" />
          </mxGeometry>
        </mxCell>
        <mxCell id="5NZmGxR7Z9d4b-Xke_Fb-43" value="" style="endArrow=classic;html=1;exitX=0.5;exitY=1;exitDx=0;exitDy=0;entryX=0.5;entryY=0;entryDx=0;entryDy=0;" edge="1" parent="WIyWlLk6GJQsqaUBKTNV-1" source="5NZmGxR7Z9d4b-Xke_Fb-39" target="5NZmGxR7Z9d4b-Xke_Fb-40">
          <mxGeometry relative="1" as="geometry">
            <mxPoint x="878" y="670" as="sourcePoint" />
            <mxPoint x="878" y="787.5" as="targetPoint" />
            <Array as="points" />
          </mxGeometry>
        </mxCell>
        <mxCell id="5NZmGxR7Z9d4b-Xke_Fb-44" value="&lt;div&gt;Text is extracted and &lt;br&gt;&lt;/div&gt;&lt;div&gt;stored in a text file.&lt;/div&gt;" style="edgeLabel;resizable=0;html=1;align=left;verticalAlign=middle;fontSize=12;" connectable="0" vertex="1" parent="5NZmGxR7Z9d4b-Xke_Fb-43">
          <mxGeometry relative="1" as="geometry">
            <mxPoint x="-125.12" y="-0.75" as="offset" />
          </mxGeometry>
        </mxCell>
        <mxCell id="5NZmGxR7Z9d4b-Xke_Fb-45" value="Data Storage" style="shape=parallelogram;perimeter=parallelogramPerimeter;whiteSpace=wrap;html=1;fixedSize=1;rounded=1;strokeColor=#6c8ebf;fillColor=#dae8fc;spacingTop=-1;spacingLeft=1;" vertex="1" parent="WIyWlLk6GJQsqaUBKTNV-1">
          <mxGeometry x="663.3299999999999" y="870" width="149.61" height="80" as="geometry" />
        </mxCell>
        <mxCell id="5NZmGxR7Z9d4b-Xke_Fb-46" value="" style="endArrow=classic;html=1;exitX=0.5;exitY=1;exitDx=0;exitDy=0;entryX=0.5;entryY=0;entryDx=0;entryDy=0;" edge="1" parent="WIyWlLk6GJQsqaUBKTNV-1" source="5NZmGxR7Z9d4b-Xke_Fb-40" target="5NZmGxR7Z9d4b-Xke_Fb-45">
          <mxGeometry relative="1" as="geometry">
            <mxPoint x="748.25" y="840" as="sourcePoint" />
            <mxPoint x="748.1399999999999" y="961.25" as="targetPoint" />
            <Array as="points" />
          </mxGeometry>
        </mxCell>
        <mxCell id="5NZmGxR7Z9d4b-Xke_Fb-47" value="&lt;div&gt;Extract fields with &lt;br&gt;&lt;/div&gt;&lt;div&gt;advanced algorithm &lt;br&gt;&lt;/div&gt;&lt;div&gt;and fuzzy logic.&lt;br&gt;&lt;/div&gt;" style="edgeLabel;resizable=0;html=1;align=left;verticalAlign=middle;fontSize=12;" connectable="0" vertex="1" parent="5NZmGxR7Z9d4b-Xke_Fb-46">
          <mxGeometry relative="1" as="geometry">
            <mxPoint x="-125.07" y="-1.75" as="offset" />
          </mxGeometry>
        </mxCell>
        <mxCell id="5NZmGxR7Z9d4b-Xke_Fb-48" value="" style="endArrow=classic;html=1;exitX=0.5;exitY=1;exitDx=0;exitDy=0;entryX=0.5;entryY=0;entryDx=0;entryDy=0;" edge="1" parent="WIyWlLk6GJQsqaUBKTNV-1" source="5NZmGxR7Z9d4b-Xke_Fb-45">
          <mxGeometry relative="1" as="geometry">
            <mxPoint x="837.9999999999999" y="1040" as="sourcePoint" />
            <mxPoint x="738" y="1040" as="targetPoint" />
            <Array as="points" />
          </mxGeometry>
        </mxCell>
        <mxCell id="5NZmGxR7Z9d4b-Xke_Fb-49" value="&lt;div&gt;Can be stored in &lt;br&gt;&lt;/div&gt;&lt;div&gt;database or export as &lt;br&gt;&lt;/div&gt;&lt;div&gt;csv, excel documents.&lt;/div&gt;" style="edgeLabel;resizable=0;html=1;align=left;verticalAlign=middle;fontSize=12;" connectable="0" vertex="1" parent="5NZmGxR7Z9d4b-Xke_Fb-48">
          <mxGeometry relative="1" as="geometry">
            <mxPoint x="-125.07" y="5" as="offset" />
          </mxGeometry>
        </mxCell>
        <mxCell id="5NZmGxR7Z9d4b-Xke_Fb-50" value="&lt;div align=&quot;left&quot;&gt;Image is enhanced as best as possible without losing data.&lt;/div&gt;" style="text;html=1;strokeColor=none;fillColor=none;align=left;verticalAlign=middle;whiteSpace=wrap;rounded=0;fontSize=12;" vertex="1" parent="WIyWlLk6GJQsqaUBKTNV-1">
          <mxGeometry x="613" y="460" width="120" height="70" as="geometry" />
        </mxCell>
        <mxCell id="5NZmGxR7Z9d4b-Xke_Fb-51" value="&lt;div align=&quot;left&quot;&gt;But unclear, darker or warped image may make it harder for OCR to function properly.&lt;/div&gt;" style="text;html=1;strokeColor=none;fillColor=none;align=left;verticalAlign=middle;whiteSpace=wrap;rounded=0;fontSize=12;" vertex="1" parent="WIyWlLk6GJQsqaUBKTNV-1">
          <mxGeometry x="750" y="460" width="170" height="70" as="geometry" />
        </mxCell>
        <mxCell id="5NZmGxR7Z9d4b-Xke_Fb-52" value="&lt;div align=&quot;left&quot;&gt;But may contain more mistakes, spelling errors and unrecognized words.&lt;br&gt;&lt;/div&gt;" style="text;html=1;strokeColor=none;fillColor=none;align=left;verticalAlign=middle;whiteSpace=wrap;rounded=0;fontSize=12;" vertex="1" parent="WIyWlLk6GJQsqaUBKTNV-1">
          <mxGeometry x="750" y="630" width="150" height="40" as="geometry" />
        </mxCell>
        <mxCell id="5NZmGxR7Z9d4b-Xke_Fb-53" value="&lt;div align=&quot;left&quot;&gt;Data extracted may not make sense as OCR has high variance in prediction.&lt;br&gt;&lt;/div&gt;" style="text;html=1;strokeColor=none;fillColor=none;align=left;verticalAlign=middle;whiteSpace=wrap;rounded=0;fontSize=12;" vertex="1" parent="WIyWlLk6GJQsqaUBKTNV-1">
          <mxGeometry x="750" y="789" width="150" height="50" as="geometry" />
        </mxCell>
        <mxCell id="5NZmGxR7Z9d4b-Xke_Fb-54" value="Accuracy of prediction varies widely ranging from 10% to 70%." style="text;html=1;strokeColor=none;fillColor=none;align=left;verticalAlign=middle;whiteSpace=wrap;rounded=0;fontSize=12;" vertex="1" parent="WIyWlLk6GJQsqaUBKTNV-1">
          <mxGeometry x="752" y="975" width="150" height="50" as="geometry" />
        </mxCell>
        <mxCell id="5NZmGxR7Z9d4b-Xke_Fb-55" value="Text extracted has very minimal mistakes." style="text;html=1;strokeColor=none;fillColor=none;align=left;verticalAlign=middle;whiteSpace=wrap;rounded=0;fontSize=12;" vertex="1" parent="WIyWlLk6GJQsqaUBKTNV-1">
          <mxGeometry x="400" y="630" width="150" height="40" as="geometry" />
        </mxCell>
        <mxCell id="5NZmGxR7Z9d4b-Xke_Fb-57" value="Accuracy of prediction is on average greater than 85%" style="text;html=1;strokeColor=none;fillColor=none;align=left;verticalAlign=middle;whiteSpace=wrap;rounded=0;fontSize=12;" vertex="1" parent="WIyWlLk6GJQsqaUBKTNV-1">
          <mxGeometry x="400" y="975" width="150" height="50" as="geometry" />
        </mxCell>
      </root>
    </mxGraphModel>
  </diagram>
</mxfile>
